<svg width="1024" height="1024" viewBox="0 0 1024 1024" fill="none" xmlns="http://www.w3.org/2000/svg">
  <rect width="1024" height="1024" rx="220" fill="url(#paint0_linear)"/>
  <path d="M246 240H410V640H658V784H246V240Z" fill="#F8FAFC"/>
  <path d="M470 240H620C734 240 808 302 808 398C808 465 771 518 705 542L824 784H648L549 582H470V784H470V240ZM620 436C664 436 695 418 695 386C695 354 664 336 620 336H583V436H620Z" fill="#D6E4FF"/>
  <circle cx="777" cy="254" r="58" fill="#F59E0B"/>
  <defs>
    <linearGradient id="paint0_linear" x1="95.5" y1="84.5" x2="921.5" y2="936" gradientUnits="userSpaceOnUse">
      <stop stop-color="#0F172A"/>
      <stop offset="1" stop-color="#1D4ED8"/>
    </linearGradient>
  </defs>
</svg>
